<svg width="81" height="80" xmlns="http://www.w3.org/2000/svg" xmlns:xlink="http://www.w3.org/1999/xlink" xml:space="preserve" overflow="hidden"><g transform="translate(-313 -124)"><g><g><g><g><path d="M314 124 394 124 394 204 314 204Z" fill="#DD344C" fill-rule="evenodd" fill-opacity="1"/><path d="M373.611 183.179 353.507 144 359.258 144 379.363 183.179 373.611 183.179ZM381.889 183.722 360.759 142.544C360.589 142.21 360.245 142 359.87 142L351.87 142C351.521 142 351.198 142.181 351.016 142.479 350.835 142.776 350.821 143.147 350.98 143.457L372.11 184.636C372.281 184.969 372.625 185.179 373 185.179L381 185.179C381.348 185.179 381.672 184.998 381.853 184.7 382.035 184.403 382.049 184.033 381.889 183.722ZM361.599 183.179 346.215 154.332 349.366 149.121 367.341 183.179 361.599 183.179ZM350.31 146.624C350.141 146.305 349.815 146.101 349.455 146.091 349.109 146.07 348.757 146.265 348.57 146.573L344.21 153.784C344.027 154.086 344.017 154.461 344.182 154.772L360.117 184.65C360.291 184.975 360.631 185.179 361 185.179L369 185.179C369.35 185.179 369.675 184.995 369.856 184.695 370.037 184.395 370.048 184.022 369.884 183.712L350.31 146.624ZM328.773 183.179 342.885 159.84 345.76 165.229 339.134 176.678C338.955 176.988 338.955 177.369 339.133 177.679 339.312 177.988 339.642 178.179 340 178.179L352.667 178.179 355.333 183.179 328.773 183.179ZM354.149 176.708C353.975 176.383 353.635 176.179 353.266 176.179L341.734 176.179 347.769 165.75C347.943 165.451 347.949 165.084 347.787 164.779L343.823 157.346C343.653 157.029 343.327 156.827 342.967 156.817 342.583 156.8 342.27 156.992 342.085 157.299L326.144 183.661C325.958 183.971 325.952 184.356 326.129 184.67 326.306 184.985 326.638 185.179 327 185.179L357 185.179C357.351 185.179 357.676 184.995 357.857 184.694 358.038 184.392 358.048 184.018 357.882 183.708L354.149 176.708Z" fill="#FFFFFF" fill-rule="evenodd" fill-opacity="1"/></g></g></g></g></g></svg>