<svg width="81" height="80" xmlns="http://www.w3.org/2000/svg" xmlns:xlink="http://www.w3.org/1999/xlink" xml:space="preserve" overflow="hidden"><g transform="translate(-313 -124)"><g><g><g><g><path d="M314 124 394 124 394 204 314 204Z" fill="#8C4FFF" fill-rule="nonzero" fill-opacity="1"/><path d="M348.065 179.632 351 179.632 351 177.615 348.065 177.615 348.065 179.632ZM353 179.632 356 179.632 356 177.615 353 177.615 353 179.632ZM341 138.63 328 145.082 328 185.193 341 189.59 341 138.63ZM343 151.393 343 177.615 346 177.615 346 179.632 343 179.632 343 190.992C343 191.316 342.845 191.621 342.584 191.81 342.412 191.936 342.207 192 342 192 341.894 192 341.786 191.983 341.682 191.948L326.682 186.876C326.274 186.738 326 186.352 326 185.92L326 144.454C326 144.07 326.217 143.719 326.559 143.549L341.559 136.104C341.868 135.95 342.235 135.968 342.528 136.152 342.821 136.336 343 136.66 343 137.009L343 149.376 346 149.376 346 151.393 343 151.393ZM358 179.632 361 179.632 361 177.615 358 177.615 358 179.632ZM358.065 151.393 361 151.393 361 149.376 358.065 149.376 358.065 151.393ZM353.065 151.393 356 151.393 356 149.376 353.065 149.376 353.065 151.393ZM348.065 151.393 351 151.393 351 149.376 348.065 149.376 348.065 151.393ZM380 145.082 367 138.63 367 189.59 380 185.193 380 145.082ZM382 185.92C382 186.352 381.726 186.738 381.318 186.876L366.318 191.948C366.214 191.983 366.106 192 366 192 365.793 192 365.588 191.936 365.416 191.81 365.155 191.621 365 191.316 365 190.992L365 179.632 363.065 179.632 363.065 177.615 365 177.615 365 151.393 363.065 151.393 363.065 149.376 365 149.376 365 137.009C365 136.66 365.179 136.336 365.472 136.152 365.765 135.968 366.131 135.95 366.441 136.104L381.441 143.549C381.783 143.719 382 144.07 382 144.454L382 185.92ZM356.934 157.807 355.066 157.083 350.066 170.193 351.934 170.918 356.934 157.807ZM363.707 164.209C364.098 163.814 364.098 163.176 363.707 162.783L359.707 158.749 358.293 160.175 361.586 163.496 358.293 166.817 359.707 168.243 363.707 164.209ZM348.293 168.243 344.293 164.209C343.902 163.814 343.902 163.176 344.293 162.783L348.293 158.749 349.707 160.175 346.414 163.496 349.707 166.817 348.293 168.243Z" fill="#FFFFFF" fill-rule="evenodd" fill-opacity="1"/></g></g></g></g></g></svg>