<svg width="82" height="80" xmlns="http://www.w3.org/2000/svg" xmlns:xlink="http://www.w3.org/1999/xlink" xml:space="preserve" overflow="hidden"><g transform="translate(-790 -124)"><g><g><g><g><path d="M791 124 871 124 871 204 791 204Z" fill="#C925D1" fill-rule="evenodd" fill-opacity="1"/><path d="M817.628 152.105 815.611 152.105 815.611 145.123C815.611 144.564 815.971 144.133 816.537 144.133L823.681 144.126 823.681 146.12 818.95 146.12 823.812 150.939 822.367 152.373 817.561 147.645 817.628 152.105ZM845.698 162.972 847.567 163.799 841.026 178.245 839.158 177.418 845.698 162.972ZM847.009 173.465 851.012 170.575 847.486 167.04 848.944 165.618 853.303 169.991C853.512 170.2 853.619 170.49 853.594 170.783 853.571 171.076 853.418 171.345 853.177 171.518L848.215 175.098 847.009 173.465ZM837.966 164.663 839.171 166.297 835.11 169.228 838.648 172.764 837.194 174.188 832.82 169.815C832.61 169.606 832.502 169.316 832.527 169.023 832.55 168.729 832.701 168.461 832.944 168.287L837.966 164.663ZM860 148.13 860 190.988C860 191.547 859.542 192 858.976 192L827.717 192C827.444 192 827.185 191.893 826.994 191.703 826.802 191.513 826.708 191.271 826.708 191.003L826.708 179.034 828.726 179.034 828.726 190.005 857.982 190.005 857.982 149.113 828.726 149.113 828.726 147.118 858.976 147.118C859.542 147.118 860 147.571 860 148.13ZM824.182 158.588C824.182 156.661 825.767 155.093 827.717 155.093 829.667 155.093 831.252 156.661 831.252 158.588 831.252 160.515 829.667 162.083 827.717 162.083 825.767 162.083 824.182 160.515 824.182 158.588ZM808.549 190.009C806.599 190.009 805.014 188.441 805.014 186.514 805.014 184.587 806.599 183.02 808.549 183.02 810.499 183.02 812.084 184.587 812.084 186.514 812.084 188.441 810.499 190.009 808.549 190.009ZM805.014 166.567C805.014 164.64 806.599 163.072 808.549 163.072 810.531 163.072 812.084 164.607 812.084 166.567 812.084 168.494 810.499 170.062 808.549 170.062 806.599 170.062 805.014 168.494 805.014 166.567ZM805.018 141.486C805.018 139.561 806.602 137.995 808.549 137.995 810.496 137.995 812.08 139.561 812.08 141.486 812.08 143.41 810.496 144.976 808.549 144.976 806.602 144.976 805.018 143.41 805.018 141.486ZM828.726 171.249 828.726 163.972C831.295 163.495 833.261 161.264 833.261 158.588 833.261 155.566 830.774 153.106 827.717 153.106 824.66 153.106 822.172 155.566 822.172 158.588 822.172 161.264 824.138 163.495 826.708 163.972L826.708 171.249C826.708 172.411 825.922 173.466 824.728 173.934L814.277 178.035C812.604 178.691 811.375 179.982 810.843 181.531 810.41 181.335 810.042 181.194 809.557 181.114L809.557 171.968C812.18 171.535 814.093 169.281 814.093 166.567 814.093 163.803 812.215 161.595 809.557 161.174L809.557 146.889C812.184 146.458 814.097 144.202 814.097 141.486 814.097 138.46 811.609 136 808.549 136 805.489 136 803 138.46 803 141.486 803 144.126 805.022 146.336 807.54 146.854L807.54 161.202C805.025 161.721 803.004 163.929 803.004 166.567 803.004 169.205 805.025 171.413 807.54 171.932L807.54 181.15C805.025 181.668 803.004 183.876 803.004 186.514 803.004 189.536 805.492 191.996 808.549 191.996 811.605 191.996 814.093 189.536 814.093 186.514 814.093 185.091 813.536 183.797 812.635 182.821 812.802 181.55 813.701 180.437 815.031 179.916L825.482 175.815C827.462 175.038 828.726 173.246 828.726 171.249Z" fill="#FFFFFF" fill-rule="evenodd" fill-opacity="1"/></g></g></g></g></g></svg>