<svg width="82" height="80" xmlns="http://www.w3.org/2000/svg" xmlns:xlink="http://www.w3.org/1999/xlink" xml:space="preserve" overflow="hidden"><g transform="translate(-790 -124)"><g><g><g><g><path d="M791 124 871 124 871 204 791 204Z" fill="#01A88D" fill-rule="evenodd" fill-opacity="1"/><path d="M832 152.992 839 152.992 839 150.991 832 150.991 832 152.992ZM832 146.964 841 146.964 841 144.962 832 144.962 832 146.964ZM837 157.997 851 157.997 851 155.995 837 155.995 837 157.997ZM841 152.992 852 152.992 852 150.991 841 150.991 841 152.992ZM857 179.016 840 179.016 840 181.018 858 181.018C858.552 181.018 859 180.57 859 180.017L859 162.001 857 162.001 857 179.016ZM855.582 146.987 848 139.413 848 146.987 855.582 146.987ZM859 147.988 859 154.971 857 154.971 857 148.989 847 148.989C846.447 148.989 846 148.54 846 147.988L846 138.002 828 138.006 828 150.991 826 150.991 826 137.005C826 136.452 826.446 136.004 827 136.004L847 136C847.259 136 847.515 136.102 847.706 136.292L858.706 147.279C858.898 147.47 859 147.728 859 147.988ZM809.999 175.012 811.999 175.012 811.999 168.006 809.999 168.006 809.999 175.012ZM813.999 178.015 815.999 178.015 815.999 164.003 813.999 164.003 813.999 178.015ZM817.999 176.013 819.999 176.013 819.999 165.003 817.999 165.003 817.999 176.013ZM822 179.016 824 179.016 824 163.002 822 163.002 822 179.016ZM826 175.012 828 175.012 828 166.004 826 166.004 826 175.012ZM830 179.016 832 179.016 832 163.002 830 163.002 830 179.016ZM834 174.012 836 174.012 836 167.005 834 167.005 834 174.012ZM836.166 180.466 837.834 181.57C834.574 186.507 829.028 189.455 823 189.455 819.779 189.455 816.596 188.644 813.968 187.165L804.889 191.862C804.694 191.955 804.49 192 804.291 192 803.942 192 803.608 191.862 803.36 191.604 802.974 191.201 802.889 190.599 803.15 190.102L807.845 181.067C805.956 178.007 804.999 174.962 804.999 172.01 804.999 162.244 813.242 153.993 823 153.993 826.729 153.993 830.679 155.182 833.567 157.172L832.432 158.822C829.866 157.051 826.339 155.995 823 155.995 814.326 155.995 806.999 163.329 806.999 172.01 806.999 174.728 807.954 177.575 809.836 180.471 810.034 180.775 810.052 181.159 809.885 181.479L805.944 189.063 813.54 185.134C813.85 184.973 814.221 184.986 814.52 185.169 816.893 186.62 819.983 187.453 823 187.453 828.354 187.453 833.277 184.84 836.166 180.466Z" fill="#FFFFFF" fill-rule="evenodd" fill-opacity="1"/></g></g></g></g></g></svg>