<svg role="img" viewBox="0 0 156 156" xmlns="http://www.w3.org/2000/svg" id="Langchain--Streamline-Simple-Icons.svg" height="156" width="156"><desc>Langchain Streamline Icon: https://streamlinehq.com</desc><title>LangChain</title><path d="M39.642199999999995 38.463750000000005C17.78335 38.463750000000005 0 56.2003 0 78s17.784000000000002 39.536249999999995 39.642199999999995 39.536249999999995h76.71560000000001C138.21665 117.53625 156 99.7997 156 78s-17.784000000000002 -39.536249999999995 -39.642199999999995 -39.536249999999995ZM38.853100000000005 51.0315c3.2045 0.08059999999999999 6.63 1.6223999999999998 8.2745 4.0482000000000005 2.3874500000000003 2.9848 3.1057 6.9342 5.8136 9.7058 3.6426 3.9767 7.793500000000001 7.478250000000001 11.15465 11.713000000000001 3.1798 3.8701000000000003 5.4509 8.40905 7.4334 12.98375 0.8086 1.5177500000000002 0.81705 3.3813 2.015 4.67805 0.5902000000000001 0.7826 3.4749 2.91395 2.8489500000000003 3.66925 0.36075 0.7826 3.0563000000000002 1.8589999999999998 2.1209499999999997 2.61755 -1.2635999999999998 0.26 -2.68385 0.3094 -3.6504 -0.6980999999999999 -0.35685 0.819 -1.1895 0.3874 -1.83235 0.2808a26 26 0 0 0 -0.1625 0.4784c-2.1372 0.14235 -3.7401 -2.0319 -4.758 -3.6724999999999994 -2.02215 -1.092 -4.3173 -1.7563 -6.383 -2.899 -0.1183 1.8817499999999998 0.2938 4.21525 -1.5015 5.42945 -0.091 3.61725 5.4834000000000005 0.42640000000000006 5.9943 3.1226 -0.39649999999999996 0.04355 -0.8359 -0.06175 -1.1531 0.24245 -1.45535 1.4118 -3.12325 -1.06925 -4.80025 -0.0455 -2.2516 1.131 -2.4752 2.05465 -5.2623999999999995 2.288 -0.15405 -0.23335 -0.09295 -0.38480000000000003 0.03835 -0.52715 0.78455 -0.90935 0.84175 -1.9798999999999998 2.1814 -2.36795 -1.3793 -0.2171 -2.5343500000000003 0.54145 -3.6959 1.14205 -1.5099500000000001 0.6175 -1.4976 -1.39165 -3.8207 0.10660000000000001 -0.2574 -0.20929999999999999 -0.1352 -0.39975 0.0117 -0.5616 0.5902000000000001 -0.71955 1.3663 -0.8255 2.2424999999999997 -0.7852 -4.3095 -2.3958999999999997 -6.33815 2.92955 -8.32845 0.2808 -0.598 0.15794999999999998 -0.82225 0.6942 -1.19925 1.0738 -0.325 -0.3562 -0.07995000000000001 -0.7878000000000001 -0.06435 -1.20705 -0.3887 -0.182 -0.8814 -0.2665 -0.7663500000000001 -0.8879 -0.76115 -0.25675 -1.2922 0.19174999999999998 -1.8589999999999998 0.6188 -0.5115500000000001 -0.3952 0.3458 -0.9698 0.5044 -1.3812499999999999 0.4563 -0.7904 1.495 -0.1625 2.02215 -0.7319 1.4989 -0.8502 3.588 0.5291 5.30075 0.29575 1.3195000000000001 0.16574999999999998 2.9536000000000002 -1.18625 2.2919 -2.535 -1.41115 -1.79855 -1.1635 -4.1509 -1.1953500000000001 -6.30175 -0.1742 -1.25385 -3.1915 -2.8483 -4.0638 -4.2003 -1.07835 -1.21745 -1.9175 -2.63055 -2.75795 -4.0183 -3.0329 -5.8552 -2.0787 -13.379599999999998 -5.900049999999999 -18.815549999999998 -1.729 0.9529000000000001 -3.98125 0.5031 -5.4717 -0.7735 -0.8047 0.7312500000000001 -0.8398000000000001 1.6886999999999999 -0.9035000000000001 2.70465 -1.9304999999999999 -1.9253 -1.68545 -5.56335 -0.143 -7.70575 0.62985 -0.8463 1.38255 -1.54245 2.2230000000000003 -2.1554 0.1898 -0.13845 0.25415000000000004 -0.27235 0.25025 -0.48555000000000004 0.7631 -3.4235499999999996 3.7466 -4.80415 6.951099999999999 -4.72355m80.64615 2.99c3.62375 0 7.0239 1.40335 9.581 3.9532999999999996s3.965 5.94425 3.965 9.557599999999999c0 3.6140000000000003 -1.40855 7.007000000000001 -3.965 9.5537v0.0039l-5.863 5.84675a13.52 13.52 0 0 1 -5.58805 3.3579l-0.10660000000000001 0.03055 -0.0377 0.10660000000000001a13.325 13.325 0 0 1 -3.081 4.7502l-5.8617 5.84675c-2.5571 2.5506 -5.960500000000001 3.95395 -9.584249999999999 3.95395s-7.0239 -1.404 -9.581 -3.95395c-5.2844999999999995 -5.26955 -5.2844999999999995 -13.841099999999999 0 -19.1113l5.86235 -5.84675a13.364 13.364 0 0 1 5.577 -3.34295l0.11050000000000001 -0.03445 0.0377 -0.10270000000000001a13.454999999999998 13.454999999999998 0 0 1 3.0888 -4.76905l5.8617 -5.84675c2.5571 -2.5506 5.96115 -3.95395 9.584249999999999 -3.95395zm0 5.827249999999999a7.67 7.67 0 0 0 -5.4521999999999995 2.2503l-5.8617 5.84675a7.676500000000001 7.676500000000001 0 0 0 -2.22755 6.0138l0.03445 0.3718c0.20995000000000003 1.7238 0.9684999999999999 3.2786 2.1931 4.49605 0.845 0.8423999999999999 1.7764499999999999 1.3741 2.90615 1.7459a5.8500000000000005 5.8500000000000005 0 0 1 0.091 1.0283 5.746 5.746 0 0 1 -1.69585 4.0976l-0.3601 0.3601c-1.95845 -0.6682 -3.59125 -1.6445 -5.0661 -3.1148000000000002a13.39 13.39 0 0 1 -3.7446499999999996 -7.1292l-0.06435 -0.3757 -0.29965 0.2392a7.15 7.15 0 0 0 -0.5694 0.5161l-5.8656 5.84675c-3.00495 2.9965 -3.00495 7.878 0 10.874500000000001 1.50215 1.49825 3.4775 2.2489999999999997 5.4561 2.24965 1.97795 0 3.95005 -0.7514 5.4521999999999995 -2.2503l5.86235 -5.84675c3.00495 -2.9965 3.00495 -7.87345 0 -10.874500000000001a7.6049999999999995 7.6049999999999995 0 0 0 -2.8385499999999997 -1.7868499999999998 6.5 6.5 0 0 1 -0.091 -1.04715c0 -1.68415 0.66495 -3.2825 1.88565 -4.49995 1.96235 0.6682 3.7049999999999996 1.7510999999999999 5.1753 3.2175 1.9545500000000002 1.94935 3.2461 4.4135 3.7414 7.1292l0.06825 0.3757 0.29575 -0.24245a7.15 7.15 0 0 0 0.57655 -0.5161l5.863 -5.8473999999999995c3.0043 -2.9965 3.0082 -7.880599999999999 0 -10.87775a7.67 7.67 0 0 0 -5.45675 -2.2503Zm-64.8245 33.51855 -0.0039 0.0039c-0.51545 2.0007 -0.6812 5.4067 -3.289 5.5055 -0.21450000000000002 1.1544 0.7982 1.58925 1.7257500000000001 1.2181000000000002 0.9164999999999999 -0.41925 1.3526500000000001 0.3302 1.6620499999999998 1.0770499999999998 1.41505 0.20604999999999998 3.5061 -0.47124999999999995 3.5854 -2.1437 -2.1125000000000003 -1.2135500000000001 -2.76445 -3.5216999999999996 -3.6803000000000003 -5.66085" fill="#000000" stroke-width="1"></path></svg>