<svg width="81" height="80" xmlns="http://www.w3.org/2000/svg" xmlns:xlink="http://www.w3.org/1999/xlink" xml:space="preserve" overflow="hidden"><g transform="translate(-313 -124)"><g><g><g><g><path d="M314 124 394 124 394 204 314 204Z" fill="#C925D1" fill-rule="evenodd" fill-opacity="1"/><path d="M329.414 138 338.707 147.293 337.293 148.707 328 139.414 328 147 326 147 326 137C326 136.448 326.447 136 327 136L337 136 337 138 329.414 138ZM382 137 382 147 380 147 380 139.414 370.707 148.707 369.293 147.293 378.586 138 371 138 371 136 381 136C381.553 136 382 136.448 382 137ZM380 181 382 181 382 191C382 191.552 381.553 192 381 192L371 192 371 190 378.586 190 369.293 180.707 370.707 179.293 380 188.586 380 181ZM379.5 163.213C379.5 159.894 375.668 156.615 369.25 154.442L369.891 152.548C377.268 155.045 381.5 158.932 381.5 163.213 381.5 167.495 377.268 171.383 369.89 173.879L369.249 171.984C375.668 169.812 379.5 166.534 379.5 163.213ZM328.556 163.213C328.556 166.393 332.143 169.585 338.152 171.753L337.473 173.634C330.535 171.131 326.556 167.333 326.556 163.213 326.556 159.094 330.535 155.296 337.473 152.792L338.152 154.673C332.143 156.842 328.556 160.034 328.556 163.213ZM338.707 180.707 329.414 190 337 190 337 192 327 192C326.447 192 326 191.552 326 191L326 181 328 181 328 188.586 337.293 179.293 338.707 180.707ZM354 155.286C346.854 155.286 343 153.44 343 152.686 343 151.931 346.854 150.086 354 150.086 361.145 150.086 365 151.931 365 152.686 365 153.44 361.145 155.286 354 155.286ZM354.029 163.031C347.187 163.031 343 161.162 343 160.145L343 155.284C345.463 156.643 349.832 157.286 354 157.286 358.168 157.286 362.537 156.643 365 155.284L365 160.145C365 161.163 360.835 163.031 354.029 163.031ZM354.029 170.667C347.187 170.667 343 168.798 343 167.781L343 162.862C345.431 164.291 349.742 165.031 354.029 165.031 358.292 165.031 362.578 164.292 365 162.867L365 167.781C365 168.799 360.835 170.667 354.029 170.667ZM354 177.518C346.883 177.518 343 175.605 343 174.622L343 170.498C345.431 171.927 349.742 172.667 354.029 172.667 358.292 172.667 362.578 171.929 365 170.503L365 174.622C365 175.605 361.117 177.518 354 177.518ZM354 148.086C347.739 148.086 341 149.525 341 152.686L341 174.622C341 177.836 347.54 179.518 354 179.518 360.46 179.518 367 177.836 367 174.622L367 152.686C367 149.525 360.261 148.086 354 148.086Z" fill="#FFFFFF" fill-rule="evenodd" fill-opacity="1"/></g></g></g></g></g></svg>